  0
SECTION
  2
HEADER
  9
$ACADVER
  1
AC1014
  9
$HANDSEED
  5
FFFF
  9
$MEASUREMENT
 70
     1
  0
ENDSEC
  0
SECTION
  2
TABLES
  0
TABLE
  2
VPORT
  5
8
330
0
100
AcDbSymbolTable
 70
     4
  0
VPORT
  5
2E
330
8
100
AcDbSymbolTableRecord
100
AcDbViewportTableRecord
  2
*ACTIVE
 70
     0
 10
0.0
 20
0.0
 11
1.0
 21
1.0
 12
210.0
 22
148.5
 13
0.0
 23
0.0
 14
10.0
 24
10.0
 15
10.0
 25
10.0
 16
0.0
 26
0.0
 36
1.0
 17
0.0
 27
0.0
 37
0.0
 40
341.0
 41
1.24
 42
50.0
 43
0.0
 44
0.0
 50
0.0
 51
0.0
 71
     0
 72
   100
 73
     1
 74
     3
 75
     0
 76
     0
 77
     0
 78
     0
  0
ENDTAB
  0
TABLE
  2
LTYPE
  5
5
330
0
100
AcDbSymbolTable
 70
     1
  0
LTYPE
  5
14
330
5
100
AcDbSymbolTableRecord
100
AcDbLinetypeTableRecord
  2
BYBLOCK
 70
     0
  3

 72
    65
 73
     0
 40
0.0
  0
LTYPE
  5
15
330
5
100
AcDbSymbolTableRecord
100
AcDbLinetypeTableRecord
  2
BYLAYER
 70
     0
  3

 72
    65
 73
     0
 40
0.0
  0
LTYPE
  5
16
330
5
100
AcDbSymbolTableRecord
100
AcDbLinetypeTableRecord
  2
CONTINUOUS
 70
     0
  3
Solid line
 72
    65
 73
     0
 40
0.0
  0
ENDTAB
  0
TABLE
  2
LAYER
  5
2
100
AcDbSymbolTable
 70
2
  0
LAYER
  5
50
100
AcDbSymbolTableRecord
100
AcDbLayerTableRecord
  2
0
 70
0
  6
CONTINUOUS
  0
LAYER
  5
51
100
AcDbSymbolTableRecord
100
AcDbLayerTableRecord
  2
Layer_1
 70
0
  6
CONTINUOUS
  0
ENDTAB
  0
TABLE
  2
STYLE
  5
3
330
0
100
AcDbSymbolTable
 70
     1
  0
STYLE
  5
11
330
3
100
AcDbSymbolTableRecord
100
AcDbTextStyleTableRecord
  2
STANDARD
 70
     0
 40
0.0
 41
1.0
 50
0.0
 71
     0
 42
2.5
  3
txt
  4

  0
ENDTAB
  0
TABLE
  2
VIEW
  5
6
330
0
100
AcDbSymbolTable
 70
     0
  0
ENDTAB
  0
TABLE
  2
UCS
  5
7
330
0
100
AcDbSymbolTable
 70
     0
  0
ENDTAB
  0
TABLE
  2
APPID
  5
9
330
0
100
AcDbSymbolTable
 70
     2
  0
APPID
  5
12
330
9
100
AcDbSymbolTableRecord
100
AcDbRegAppTableRecord
  2
ACAD
 70
     0
  0
ENDTAB
  0
TABLE
  2
DIMSTYLE
  5
A
330
0
100
AcDbSymbolTable
 70
     1
  0
DIMSTYLE
105
27
330
A
100
AcDbSymbolTableRecord
100
AcDbDimStyleTableRecord
  2
ISO-25
 70
     0
  3

  4

  5

  6

  7

 40
1.0
 41
2.5
 42
0.625
 43
3.75
 44
1.25
 45
0.0
 46
0.0
 47
0.0
 48
0.0
140
2.5
141
2.5
142
0.0
143
0.03937007874016
144
1.0
145
0.0
146
1.0
147
0.625
 71
     0
 72
     0
 73
     0
 74
     0
 75
     0
 76
     0
 77
     1
 78
     8
170
     0
171
     3
172
     1
173
     0
174
     0
175
     0
176
     0
177
     0
178
     0
270
     2
271
     2
272
     2
273
     2
274
     3
340
11
275
     0
280
     0
281
     0
282
     0
283
     0
284
     8
285
     0
286
     0
287
     3
288
     0
  0
ENDTAB
  0
TABLE
  2
BLOCK_RECORD
  5
1
330
0
100
AcDbSymbolTable
 70
     1
  0
BLOCK_RECORD
  5
1F
330
1
100
AcDbSymbolTableRecord
100
AcDbBlockTableRecord
  2
*MODEL_SPACE
  0
BLOCK_RECORD
  5
1B
330
1
100
AcDbSymbolTableRecord
100
AcDbBlockTableRecord
  2
*PAPER_SPACE
  0
ENDTAB
  0
ENDSEC
  0
SECTION
  2
BLOCKS
  0
BLOCK
  5
20
330
1F
100
AcDbEntity
  8
0
100
AcDbBlockBegin
  2
*MODEL_SPACE
 70
     0
 10
0.0
 20
0.0
 30
0.0
  3
*MODEL_SPACE
  1

  0
ENDBLK
  5
21
330
1F
100
AcDbEntity
  8
0
100
AcDbBlockEnd
  0
BLOCK
  5
1C
330
1B
100
AcDbEntity
 67
     1
  8
0
100
AcDbBlockBegin
  2
*PAPER_SPACE
  1

  0
ENDBLK
  5
1D
330
1B
100
AcDbEntity
 67
     1
  8
0
100
AcDbBlockEnd
  0
ENDSEC
  0
SECTION
  2
ENTITIES
  0
SPLINE
  5
100
100
AcDbEntity
  8
Layer_1
 62
7
100
AcDbSpline
 70
0
 71
3
 72
604
 73
600
 74
598
 40
0.000000
 40
0.000000
 40
0.000000
 40
0.000000
 40
1.130821
 40
2.259822
 40
3.385159
 40
4.505021
 40
5.617575
 40
6.721061
 40
7.813664
 40
8.893660
 40
9.959352
 40
11.009024
 40
12.041025
 40
13.053791
 40
14.045727
 40
15.015319
 40
15.961151
 40
16.881838
 40
17.776031
 40
18.642546
 40
19.480163
 40
20.287819
 40
21.064626
 40
21.809655
 40
22.522199
 40
23.201724
 40
23.847745
 40
24.460043
 40
25.038674
 40
25.583826
 40
26.096045
 40
26.576325
 40
27.025980
 40
27.446937
 40
27.841800
 40
28.213806
 40
28.567135
 40
28.906714
 40
29.238195
 40
29.567699
 40
29.901423
 40
30.245523
 40
30.605352
 40
30.985472
 40
31.389770
 40
31.821259
 40
32.282174
 40
32.774291
 40
33.298808
 40
33.856450
 40
34.447682
 40
35.072676
 40
35.731265
 40
36.423234
 40
37.148069
 40
37.905081
 40
38.693559
 40
39.512604
 40
40.361163
 40
41.238175
 40
42.142475
 40
43.072741
 40
44.027646
 40
45.005812
 40
46.005719
 40
47.025880
 40
48.064726
 40
49.120594
 40
50.191838
 40
51.276781
 40
52.373666
 40
53.480744
 40
54.596253
 40
55.718375
 40
56.845299
 40
57.975207
 40
59.106269
 40
60.236623
 40
61.364456
 40
62.487956
 40
63.605286
 40
64.714638
 40
65.814253
 40
66.902338
 40
67.977159
 40
69.037045
 40
70.080289
 40
71.105260
 40
72.110402
 40
73.094127
 40
74.054967
 40
74.991535
 40
75.902445
 40
76.786382
 40
77.642188
 40
78.468708
 40
79.264888
 40
80.029871
 40
80.762807
 40
81.463009
 40
82.130020
 40
82.763429
 40
83.363084
 40
83.929127
 40
84.461846
 40
84.961935
 40
85.430555
 40
85.869204
 40
86.280026
 40
86.665899
 40
87.030362
 40
87.377892
 40
87.713746
 40
88.043732
 40
88.374151
 40
88.710997
 40
89.060376
 40
89.427329
 40
89.816138
 40
90.230320
 40
90.672613
 40
91.145044
 40
91.649182
 40
92.186061
 40
92.756256
 40
93.360148
 40
93.997782
 40
94.668921
 40
95.373266
 40
96.110265
 40
96.879163
 40
97.679207
 40
98.509460
 40
99.368817
 40
100.256206
 40
101.170411
 40
102.110080
 40
103.073881
 40
104.060389
 40
105.068073
 40
106.095409
 40
107.140818
 40
108.202639
 40
109.279233
 40
110.368864
 40
111.469775
 40
112.580230
 40
113.698431
 40
114.822576
 40
115.950826
 40
117.081375
 40
118.212373
 40
119.342009
 40
120.468428
 40
121.589815
 40
122.704372
 40
123.810282
 40
124.905792
 40
125.989108
 40
127.058512
 40
128.112344
 40
129.148926
 40
130.166639
 40
131.163953
 40
132.139278
 40
133.091171
 40
134.018272
 40
134.919218
 40
135.792729
 40
136.637696
 40
137.452955
 40
138.237527
 40
138.990594
 40
139.711319
 40
140.399112
 40
141.053560
 40
141.674317
 40
142.261327
 40
142.814832
 40
143.335217
 40
143.823341
 40
144.280507
 40
144.708463
 40
145.109541
 40
145.486928
 40
145.844500
 40
146.186987
 40
146.519928
 40
146.849333
 40
147.181502
 40
147.522267
 40
147.877681
 40
148.252346
 40
148.650293
 40
149.074763
 40
149.528154
 40
150.012310
 40
150.528607
 40
151.077933
 40
151.660742
 40
152.277274
 40
152.927523
 40
153.611160
 40
154.327824
 40
155.076889
 40
155.857557
 40
156.669034
 40
157.510344
 40
158.380354
 40
159.277928
 40
160.201835
 40
161.150706
 40
162.123191
 40
163.117826
 40
164.133062
 40
165.167368
 40
166.219144
 40
167.286698
 40
168.368370
 40
169.462451
 40
170.567160
 40
171.680725
 40
172.801367
 40
173.927261
 40
175.056590
 40
176.187523
 40
177.318216
 40
178.446861
 40
179.571615
 40
180.690667
 40
181.802186
 40
182.904387
 40
183.995536
 40
185.073835
 40
186.137591
 40
187.185161
 40
188.214850
 40
189.225075
 40
190.214314
 40
191.181022
 40
192.123776
 40
193.041244
 40
193.932042
 40
194.794966
 40
195.628909
 40
196.432784
 40
197.205624
 40
197.946655
 40
198.655110
 40
199.330420
 40
199.972266
 40
200.580384
 40
201.154771
 40
201.695788
 40
202.203972
 40
202.680299
 40
203.126271
 40
203.543848
 40
203.935621
 40
204.305076
 40
204.656379
 40
204.994605
 40
205.325481
 40
205.655178
 40
205.989970
 40
206.335786
 40
206.697928
 40
207.080904
 40
207.488425
 40
207.923458
 40
208.388232
 40
208.884320
 40
209.412909
 40
209.974756
 40
210.570186
 40
211.199380
 40
211.862216
 40
212.558302
 40
213.287167
 40
214.048188
 40
214.840510
 40
215.663294
 40
216.515509
 40
217.395996
 40
218.303593
 40
219.237029
 40
220.194900
 40
221.175869
 40
222.178425
 40
223.200995
 40
224.242037
 40
225.299934
 40
226.372979
 40
227.459505
 40
228.557775
 40
229.665992
 40
230.782428
 40
231.905262
 40
233.032661
 40
234.162800
 40
235.293866
 40
236.424026
 40
237.551413
 40
238.674226
 40
239.790666
 40
240.898906
 40
241.997161
 40
243.083705
 40
244.156744
 40
245.214617
 40
246.255689
 40
247.278269
 40
248.280784
 40
249.261752
 40
250.219655
 40
251.153065
 40
252.060688
 40
252.941186
 40
253.793352
 40
254.616147
 40
255.408494
 40
256.169485
 40
256.898389
 40
257.594475
 40
258.257252
 40
258.886474
 40
259.481930
 40
260.043736
 40
260.572360
 40
261.068472
 40
261.533208
 40
261.968265
 40
262.375777
 40
262.758751
 40
263.120881
 40
263.466665
 40
263.801432
 40
264.131142
 40
264.462050
 40
264.800276
 40
265.151560
 40
265.521004
 40
265.912823
 40
266.330366
 40
266.776290
 40
267.252670
 40
267.760850
 40
268.301837
 40
268.876269
 40
269.484351
 40
270.126170
 40
270.801536
 40
271.509985
 40
272.250986
 40
273.023862
 40
273.827706
 40
274.661644
 40
275.524609
 40
276.415401
 40
277.332828
 40
278.275612
 40
279.242298
 40
280.231522
 40
281.241782
 40
282.271481
 40
283.319028
 40
284.382805
 40
285.461104
 40
286.552236
 40
287.654457
 40
288.765975
 40
289.885005
 40
291.009759
 40
292.138386
 40
293.269101
 40
294.400039
 40
295.529381
 40
296.655268
 40
297.775904
 40
298.889481
 40
299.994191
 40
301.088245
 40
302.169916
 40
303.237482
 40
304.289232
 40
305.323550
 40
306.338801
 40
307.333410
 40
308.305908
 40
309.254792
 40
310.178677
 40
311.076277
 40
311.946292
 40
312.787562
 40
313.599057
 40
314.379753
 40
315.128778
 40
315.845457
 40
316.529114
 40
317.179320
 40
317.795893
 40
318.378707
 40
318.927989
 40
319.444333
 40
319.928512
 40
320.381875
 40
320.806322
 40
321.204281
 40
321.578945
 40
321.934365
 40
322.275347
 40
322.607491
 40
322.936901
 40
323.269776
 40
323.612324
 40
323.969977
 40
324.347322
 40
324.748451
 40
325.176381
 40
325.633501
 40
326.121694
 40
326.642092
 40
327.195556
 40
327.782608
 40
328.403357
 40
329.057775
 40
329.745611
 40
330.466327
 40
331.219361
 40
332.003977
 40
332.819223
 40
333.664166
 40
334.537713
 40
335.438620
 40
336.365716
 40
337.317651
 40
338.292969
 40
339.290250
 40
340.307981
 40
341.344548
 40
342.398369
 40
343.467805
 40
344.551130
 40
345.646612
 40
346.752527
 40
347.867074
 40
348.988468
 40
350.114895
 40
351.244521
 40
352.375531
 40
353.506077
 40
354.634345
 40
355.758482
 40
356.876670
 40
357.987116
 40
359.088046
 40
360.177658
 40
361.254253
 40
362.316095
 40
363.361496
 40
364.388856
 40
365.396551
 40
366.383029
 40
367.346839
 40
368.286514
 40
369.200669
 40
370.088070
 40
370.947460
 40
371.777669
 40
372.577727
 40
373.346645
 40
374.083602
 40
374.787970
 40
375.459139
 40
376.096736
 40
376.700633
 40
377.270857
 40
377.807691
 40
378.311848
 40
378.784306
 40
379.226571
 40
379.640759
 40
380.029543
 40
380.396477
 40
380.745884
 40
381.082859
 40
381.413255
 40
381.743260
 40
382.079083
 40
382.426632
 40
382.791139
 40
383.177012
 40
383.587865
 40
384.026492
 40
384.495079
 40
384.995211
 40
385.527910
 40
386.093924
 40
386.693614
 40
387.326989
 40
387.993985
 40
388.694229
 40
389.427141
 40
390.192115
 40
390.988340
 40
391.814825
 40
392.670625
 40
393.554594
 40
394.465473
 40
395.402028
 40
396.362903
 40
397.346639
 40
398.351762
 40
399.376752
 40
400.419985
 40
401.479858
 40
402.554692
 40
403.642757
 40
404.742368
 40
405.851740
 40
406.969087
 40
408.092575
 40
409.220416
 40
410.350770
 40
411.481813
 40
412.611714
 40
413.738637
 40
414.860765
 40
415.976267
 40
417.083370
 40
418.180243
 40
419.265172
 40
420.336447
 40
421.392311
 40
422.431121
 40
423.451291
 40
424.451226
 40
425.429368
 40
426.384296
 40
427.314568
 40
428.218829
 40
429.095876
 40
429.944450
 40
430.763459
 40
431.551956
 40
432.308981
 40
433.033771
 40
433.725751
 40
434.384374
 40
435.009332
 40
435.600589
 40
436.158237
 40
436.682704
 40
437.174839
 40
437.635782
 40
438.067234
 40
438.471553
 40
438.851662
 40
439.211467
 40
439.555595
 40
439.889403
 40
440.218903
 40
440.550436
 40
440.889994
 40
441.243342
 40
441.615384
 40
442.010229
 40
442.431216
 40
442.880849
 40
443.361107
 40
443.873370
 40
444.418503
 40
444.997112
 40
445.609464
 40
446.255481
 40
446.934972
 40
447.647551
 40
448.392578
 40
449.169352
 40
449.977054
 40
450.814656
 40
451.681134
 40
452.575357
 40
453.496022
 40
454.441850
 40
455.411482
 40
456.403415
 40
457.416149
 40
458.448175
 40
459.497853
 40
460.563518
 40
461.643527
 40
462.736142
 40
463.839609
 40
464.952175
 40
466.072017
 40
467.197354
 40
468.326362
 40
469.457203
 40
469.457203
 40
469.457203
 40
469.457203
 10
6.628821
 20
32.423790
 30
0.0
 10
6.738591
 20
32.063187
 30
0.0
 10
6.957954
 20
31.342562
 30
0.0
 10
7.287081
 20
30.263242
 30
0.0
 10
7.616213
 20
29.187743
 30
0.0
 10
7.945334
 20
28.117975
 30
0.0
 10
8.274466
 20
27.055832
 30
0.0
 10
8.603577
 20
26.003200
 30
0.0
 10
8.932699
 20
24.961946
 30
0.0
 10
9.261813
 20
23.933909
 30
0.0
 10
9.590912
 20
22.920903
 30
0.0
 10
9.920008
 20
21.924729
 30
0.0
 10
10.249107
 20
20.947152
 30
0.0
 10
10.578180
 20
19.989892
 30
0.0
 10
10.907248
 20
19.054655
 30
0.0
 10
11.236314
 20
18.143100
 30
0.0
 10
11.565363
 20
17.256828
 30
0.0
 10
11.894387
 20
16.397402
 30
0.0
 10
12.223421
 20
15.566349
 30
0.0
 10
12.552408
 20
14.765127
 30
0.0
 10
12.881393
 20
13.995172
 30
0.0
 10
13.210383
 20
13.257842
 30
0.0
 10
13.539314
 20
12.554404
 30
0.0
 10
13.868249
 20
11.886122
 30
0.0
 10
14.197180
 20
11.254168
 30
0.0
 10
14.526062
 20
10.659623
 30
0.0
 10
14.854957
 20
10.103558
 30
0.0
 10
15.183877
 20
9.586938
 30
0.0
 10
15.512769
 20
9.110605
 30
0.0
 10
15.841714
 20
8.675410
 30
0.0
 10
16.170774
 20
8.282126
 30
0.0
 10
16.499911
 20
7.931348
 30
0.0
 10
16.829285
 20
7.623742
 30
0.0
 10
17.159001
 20
7.359891
 30
0.0
 10
17.489082
 20
7.140166
 30
0.0
 10
17.819814
 20
6.965306
 30
0.0
 10
18.151151
 20
6.835612
 30
0.0
 10
18.483130
 20
6.751671
 30
0.0
 10
18.815562
 20
6.713833
 30
0.0
 10
19.148067
 20
6.722457
 30
0.0
 10
19.480469
 20
6.776764
 30
0.0
 10
19.812182
 20
6.878083
 30
0.0
 10
20.143241
 20
7.024837
 30
0.0
 10
20.473755
 20
7.216527
 30
0.0
 10
20.803694
 20
7.452852
 30
0.0
 10
21.133215
 20
7.733233
 30
0.0
 10
21.462535
 20
8.057046
 30
0.0
 10
21.791636
 20
8.423840
 30
0.0
 10
22.120612
 20
8.832957
 30
0.0
 10
22.449557
 20
9.283655
 30
0.0
 10
22.778473
 20
9.775190
 30
0.0
 10
23.107340
 20
10.306733
 30
0.0
 10
23.436265
 20
10.877326
 30
0.0
 10
23.765162
 20
11.486027
 30
0.0
 10
24.094069
 20
12.131754
 30
0.0
 10
24.423028
 20
12.813350
 30
0.0
 10
24.751981
 20
13.529648
 30
0.0
 10
25.080945
 20
14.279382
 30
0.0
 10
25.409948
 20
15.061211
 30
0.0
 10
25.738961
 20
15.873777
 30
0.0
 10
26.067973
 20
16.715649
 30
0.0
 10
26.397018
 20
17.585322
 30
0.0
 10
26.726076
 20
18.481265
 30
0.0
 10
27.055128
 20
19.401897
 30
0.0
 10
27.384212
 20
20.345584
 30
0.0
 10
27.713296
 20
21.310664
 30
0.0
 10
28.042380
 20
22.295430
 30
0.0
 10
28.371486
 20
23.298126
 30
0.0
 10
28.700595
 20
24.316978
 30
0.0
 10
29.029703
 20
25.350189
 30
0.0
 10
29.358822
 20
26.395924
 30
0.0
 10
29.687947
 20
27.452334
 30
0.0
 10
30.017070
 20
28.517551
 30
0.0
 10
30.346198
 20
29.589689
 30
0.0
 10
30.675328
 20
30.666845
 30
0.0
 10
31.004460
 20
31.747116
 30
0.0
 10
31.333586
 20
32.828585
 30
0.0
 10
31.662721
 20
33.909328
 30
0.0
 10
31.991853
 20
34.987436
 30
0.0
 10
32.320977
 20
36.061007
 30
0.0
 10
32.650104
 20
37.128133
 30
0.0
 10
32.979232
 20
38.186924
 30
0.0
 10
33.308345
 20
39.235508
 30
0.0
 10
33.637459
 20
40.272021
 30
0.0
 10
33.966575
 20
41.294632
 30
0.0
 10
34.295669
 20
42.301537
 30
0.0
 10
34.624765
 20
43.290947
 30
0.0
 10
34.953858
 20
44.261108
 30
0.0
 10
35.282923
 20
45.210308
 30
0.0
 10
35.611993
 20
46.136853
 30
0.0
 10
35.941056
 20
47.039110
 30
0.0
 10
36.270093
 20
47.915499
 30
0.0
 10
36.599116
 20
48.764462
 30
0.0
 10
36.928142
 20
49.584489
 30
0.0
 10
37.257132
 20
50.374146
 30
0.0
 10
37.586103
 20
51.132030
 30
0.0
 10
37.915083
 20
51.856795
 30
0.0
 10
38.244016
 20
52.547189
 30
0.0
 10
38.572934
 20
53.201987
 30
0.0
 10
38.901866
 20
53.820028
 30
0.0
 10
39.230747
 20
54.400267
 30
0.0
 10
39.559637
 20
54.941666
 30
0.0
 10
39.888561
 20
55.443277
 30
0.0
 10
40.217459
 20
55.904284
 30
0.0
 10
40.546435
 20
56.323849
 30
0.0
 10
40.875542
 20
56.701240
 30
0.0
 10
41.204743
 20
57.035911
 30
0.0
 10
41.534216
 20
57.327200
 30
0.0
 10
41.864082
 20
57.574528
 30
0.0
 10
42.194367
 20
57.777526
 30
0.0
 10
42.525323
 20
57.935497
 30
0.0
 10
42.856943
 20
58.047951
 30
0.0
 10
43.189072
 20
58.114801
 30
0.0
 10
43.521667
 20
58.134898
 30
0.0
 10
43.854008
 20
58.108042
 30
0.0
 10
44.186336
 20
58.036893
 30
0.0
 10
44.517761
 20
57.918343
 30
0.0
 10
44.848604
 20
57.754699
 30
0.0
 10
45.178865
 20
57.546138
 30
0.0
 10
45.508653
 20
57.293248
 30
0.0
 10
45.838072
 20
56.996506
 30
0.0
 10
46.167310
 20
56.656525
 30
0.0
 10
46.496366
 20
56.273796
 30
0.0
 10
46.825308
 20
55.848991
 30
0.0
 10
47.154253
 20
55.382893
 30
0.0
 10
47.483148
 20
54.876246
 30
0.0
 10
47.812022
 20
54.329936
 30
0.0
 10
48.140944
 20
53.744941
 30
0.0
 10
48.469853
 20
53.122235
 30
0.0
 10
48.798763
 20
52.462917
 30
0.0
 10
49.127731
 20
51.768171
 30
0.0
 10
49.456692
 20
51.039186
 30
0.0
 10
49.785657
 20
50.277251
 30
0.0
 10
50.114673
 20
49.483730
 30
0.0
 10
50.443687
 20
48.660001
 30
0.0
 10
50.772705
 20
47.807518
 30
0.0
 10
51.101759
 20
46.927805
 30
0.0
 10
51.430815
 20
46.022408
 30
0.0
 10
51.759875
 20
45.092929
 30
0.0
 10
52.088959
 20
44.141024
 30
0.0
 10
52.418048
 20
43.168372
 30
0.0
 10
52.747138
 20
42.176690
 30
0.0
 10
53.076250
 20
41.167731
 30
0.0
 10
53.405354
 20
40.143277
 30
0.0
 10
53.734466
 20
39.105148
 30
0.0
 10
54.063591
 20
38.055191
 30
0.0
 10
54.392712
 20
36.995256
 30
0.0
 10
54.721839
 20
35.927217
 30
0.0
 10
55.050963
 20
34.852972
 30
0.0
 10
55.380098
 20
33.774427
 30
0.0
 10
55.709226
 20
32.693491
 30
0.0
 10
56.038363
 20
31.612075
 30
0.0
 10
56.367488
 20
30.532094
 30
0.0
 10
56.696619
 20
29.455465
 30
0.0
 10
57.025749
 20
28.384093
 30
0.0
 10
57.354870
 20
27.319871
 30
0.0
 10
57.683997
 20
26.264682
 30
0.0
 10
58.013105
 20
25.220400
 30
0.0
 10
58.342219
 20
24.188885
 30
0.0
 10
58.671332
 20
23.171962
 30
0.0
 10
59.000427
 20
22.171417
 30
0.0
 10
59.329518
 20
21.189024
 30
0.0
 10
59.658611
 20
20.226520
 30
0.0
 10
59.987668
 20
19.285607
 30
0.0
 10
60.316736
 20
18.367970
 30
0.0
 10
60.645794
 20
17.475230
 30
0.0
 10
60.974825
 20
16.608949
 30
0.0
 10
61.303841
 20
15.770665
 30
0.0
 10
61.632867
 20
14.961863
 30
0.0
 10
61.961840
 20
14.183955
 30
0.0
 10
62.290814
 20
13.438334
 30
0.0
 10
62.619786
 20
12.726315
 30
0.0
 10
62.948702
 20
12.049127
 30
0.0
 10
63.277628
 20
11.407986
 30
0.0
 10
63.606549
 20
10.804008
 30
0.0
 10
63.935425
 20
10.238219
 30
0.0
 10
64.264318
 20
9.711633
 30
0.0
 10
64.593251
 20
9.225167
 30
0.0
 10
64.922156
 20
8.779598
 30
0.0
 10
65.251174
 20
8.375763
 30
0.0
 10
65.580318
 20
8.014335
 30
0.0
 10
65.909622
 20
7.695878
 30
0.0
 10
66.239187
 20
7.420955
 30
0.0
 10
66.569234
 20
7.190236
 30
0.0
 10
66.899753
 20
7.004056
 30
0.0
 10
67.230926
 20
6.862961
 30
0.0
 10
67.562789
 20
6.767754
 30
0.0
 10
67.895102
 20
6.718052
 30
0.0
 10
68.227716
 20
6.716239
 30
0.0
 10
68.559909
 20
6.759973
 30
0.0
 10
68.892143
 20
6.848214
 30
0.0
 10
69.223216
 20
6.983969
 30
0.0
 10
69.553873
 20
7.164385
 30
0.0
 10
69.883946
 20
7.389637
 30
0.0
 10
70.213551
 20
7.659081
 30
0.0
 10
70.542898
 20
7.972102
 30
0.0
 10
70.872063
 20
8.328169
 30
0.0
 10
71.201084
 20
8.726735
 30
0.0
 10
71.530007
 20
9.167121
 30
0.0
 10
71.858927
 20
9.648521
 30
0.0
 10
72.187834
 20
10.170133
 30
0.0
 10
72.516702
 20
10.731074
 30
0.0
 10
72.845632
 20
11.330332
 30
0.0
 10
73.174542
 20
11.966903
 30
0.0
 10
73.503461
 20
12.639653
 30
0.0
 10
73.832435
 20
13.347378
 30
0.0
 10
74.161403
 20
14.088868
 30
0.0
 10
74.490377
 20
14.862815
 30
0.0
 10
74.819392
 20
15.667832
 30
0.0
 10
75.148416
 20
16.502507
 30
0.0
 10
75.477441
 20
17.365372
 30
0.0
 10
75.806501
 20
18.254893
 30
0.0
 10
76.135559
 20
19.169509
 30
0.0
 10
76.464623
 20
20.107596
 30
0.0
 10
76.793713
 20
21.067483
 30
0.0
 10
77.122805
 20
22.047482
 30
0.0
 10
77.451894
 20
23.045858
 30
0.0
 10
77.781007
 20
24.060838
 30
0.0
 10
78.110120
 20
25.090630
 30
0.0
 10
78.439232
 20
26.133417
 30
0.0
 10
78.768354
 20
27.187343
 30
0.0
 10
79.097480
 20
28.250538
 30
0.0
 10
79.426605
 20
29.321124
 30
0.0
 10
79.755735
 20
30.397204
 30
0.0
 10
80.084866
 20
31.476870
 30
0.0
 10
80.413995
 20
32.558209
 30
0.0
 10
80.743130
 20
33.639307
 30
0.0
 10
81.072257
 20
34.718255
 30
0.0
 10
81.401389
 20
35.793144
 30
0.0
 10
81.730511
 20
36.862065
 30
0.0
 10
82.059636
 20
37.923117
 30
0.0
 10
82.388763
 20
38.974427
 30
0.0
 10
82.717867
 20
40.014136
 30
0.0
 10
83.046982
 20
41.040392
 30
0.0
 10
83.376093
 20
42.051384
 30
0.0
 10
83.705178
 20
43.045333
 30
0.0
 10
84.034270
 20
44.020466
 30
0.0
 10
84.363357
 20
44.975059
 30
0.0
 10
84.692415
 20
45.907429
 30
0.0
 10
85.021477
 20
46.815917
 30
0.0
 10
85.350533
 20
47.698922
 30
0.0
 10
85.679545
 20
48.554893
 30
0.0
 10
86.008571
 20
49.382291
 30
0.0
 10
86.337581
 20
50.179661
 30
0.0
 10
86.666558
 20
50.945614
 30
0.0
 10
86.995517
 20
51.678789
 30
0.0
 10
87.324484
 20
52.377885
 30
0.0
 10
87.653398
 20
53.041698
 30
0.0
 10
87.982307
 20
53.669040
 30
0.0
 10
88.311233
 20
54.258804
 30
0.0
 10
88.640110
 20
54.810008
 30
0.0
 10
88.968994
 20
55.321669
 30
0.0
 10
89.297942
 20
55.792874
 30
0.0
 10
89.626878
 20
56.222882
 30
0.0
 10
89.955918
 20
56.610910
 30
0.0
 10
90.285130
 20
56.956277
 30
0.0
 10
90.614526
 20
57.258460
 30
0.0
 10
90.944225
 20
57.516915
 30
0.0
 10
91.274467
 20
57.730939
 30
0.0
 10
91.605199
 20
57.900300
 30
0.0
 10
91.936655
 20
58.024194
 30
0.0
 10
92.268699
 20
58.102385
 30
0.0
 10
92.601169
 20
58.134068
 30
0.0
 10
92.933727
 20
58.119965
 30
0.0
 10
93.265963
 20
58.058876
 30
0.0
 10
93.597629
 20
57.951927
 30
0.0
 10
93.928630
 20
57.799470
 30
0.0
 10
94.259030
 20
57.602115
 30
0.0
 10
94.588941
 20
57.360314
 30
0.0
 10
94.918458
 20
57.074505
 30
0.0
 10
95.247686
 20
56.745229
 30
0.0
 10
95.576796
 20
56.373144
 30
0.0
 10
95.905790
 20
55.958821
 30
0.0
 10
96.234691
 20
55.502958
 30
0.0
 10
96.563620
 20
55.006390
 30
0.0
 10
96.892510
 20
54.469914
 30
0.0
 10
97.221388
 20
53.894467
 30
0.0
 10
97.550307
 20
53.281089
 30
0.0
 10
97.879240
 20
52.630832
 30
0.0
 10
98.208162
 20
51.944824
 30
0.0
 10
98.537140
 20
51.224290
 30
0.0
 10
98.866115
 20
50.470472
 30
0.0
 10
99.195096
 20
49.684704
 30
0.0
 10
99.524119
 20
48.868396
 30
0.0
 10
99.853148
 20
48.022973
 30
0.0
 10
100.182171
 20
47.149931
 30
0.0
 10
100.511241
 20
46.250819
 30
0.0
 10
100.840308
 20
45.327213
 30
0.0
 10
101.169373
 20
44.380746
 30
0.0
 10
101.498467
 20
43.413115
 30
0.0
 10
101.827562
 20
42.426021
 30
0.0
 10
102.156650
 20
41.421206
 30
0.0
 10
102.485765
 20
40.400459
 30
0.0
 10
102.814880
 20
39.365583
 30
0.0
 10
103.143992
 20
38.318410
 30
0.0
 10
103.473129
 20
37.260800
 30
0.0
 10
103.802244
 20
36.194610
 30
0.0
 10
104.131375
 20
35.121736
 30
0.0
 10
104.460512
 20
34.044088
 30
0.0
 10
104.789636
 20
32.963567
 30
0.0
 10
105.118769
 20
31.882086
 30
0.0
 10
105.447896
 20
30.801563
 30
0.0
 10
105.777024
 20
29.723916
 30
0.0
 10
106.106162
 20
28.651054
 30
0.0
 10
106.435289
 20
27.584867
 30
0.0
 10
106.764401
 20
26.527244
 30
0.0
 10
107.093528
 20
25.480067
 30
0.0
 10
107.422630
 20
24.445187
 30
0.0
 10
107.751747
 20
23.424446
 30
0.0
 10
108.080856
 20
22.419638
 30
0.0
 10
108.409927
 20
21.432530
 30
0.0
 10
108.739019
 20
20.464899
 30
0.0
 10
109.068106
 20
19.518450
 30
0.0
 10
109.397150
 20
18.594840
 30
0.0
 10
109.726216
 20
17.695725
 30
0.0
 10
110.055272
 20
16.822684
 30
0.0
 10
110.384276
 20
15.977248
 30
0.0
 10
110.713288
 20
15.160939
 30
0.0
 10
111.042303
 20
14.375195
 30
0.0
 10
111.371267
 20
13.621377
 30
0.0
 10
111.700227
 20
12.900832
 30
0.0
 10
112.029187
 20
12.214830
 30
0.0
 10
112.358080
 20
11.564550
 30
0.0
 10
112.686992
 20
10.951174
 30
0.0
 10
113.015913
 20
10.375765
 30
0.0
 10
113.344789
 20
9.839283
 30
0.0
 10
113.673686
 20
9.342688
 30
0.0
 10
114.002640
 20
8.886855
 30
0.0
 10
114.331601
 20
8.472500
 30
0.0
 10
114.660686
 20
8.100380
 30
0.0
 10
114.989980
 20
7.771167
 30
0.0
 10
115.319444
 20
7.485309
 30
0.0
 10
115.649382
 20
7.243537
 30
0.0
 10
115.979764
 20
7.046166
 30
0.0
 10
116.310760
 20
6.893742
 30
0.0
 10
116.642442
 20
6.786846
 30
0.0
 10
116.974698
 20
6.726141
 30
0.0
 10
117.307249
 20
6.711370
 30
0.0
 10
117.639686
 20
6.743784
 30
0.0
 10
117.971739
 20
6.821807
 30
0.0
 10
118.303204
 20
6.945686
 30
0.0
 10
118.633963
 20
7.115006
 30
0.0
 10
118.964134
 20
7.329142
 30
0.0
 10
119.293878
 20
7.587510
 30
0.0
 10
119.623322
 20
7.889634
 30
0.0
 10
119.952455
 20
8.235077
 30
0.0
 10
120.281515
 20
8.623093
 30
0.0
 10
120.610492
 20
9.053076
 30
0.0
 10
120.939378
 20
9.524315
 30
0.0
 10
121.268306
 20
10.035940
 30
0.0
 10
121.597192
 20
10.587138
 30
0.0
 10
121.926073
 20
11.176936
 30
0.0
 10
122.254999
 20
11.804275
 30
0.0
 10
122.583939
 20
12.468076
 30
0.0
 10
122.912868
 20
13.167181
 30
0.0
 10
123.241860
 20
13.900340
 30
0.0
 10
123.570830
 20
14.666299
 30
0.0
 10
123.899821
 20
15.463687
 30
0.0
 10
124.228862
 20
16.291077
 30
0.0
 10
124.557888
 20
17.147036
 30
0.0
 10
124.886915
 20
18.030040
 30
0.0
 10
125.215982
 20
18.938523
 30
0.0
 10
125.545053
 20
19.870889
 30
0.0
 10
125.874125
 20
20.825497
 30
0.0
 10
126.203218
 20
21.800638
 30
0.0
 10
126.532321
 20
22.794583
 30
0.0
 10
126.861419
 20
23.805580
 30
0.0
 10
127.190525
 20
24.831840
 30
0.0
 10
127.519647
 20
25.871544
 30
0.0
 10
127.848768
 20
26.922856
 30
0.0
 10
128.177886
 20
27.983909
 30
0.0
 10
128.507021
 20
29.052818
 30
0.0
 10
128.836143
 20
30.127697
 30
0.0
 10
129.165273
 20
31.206645
 30
0.0
 10
129.494404
 20
32.287748
 30
0.0
 10
129.823545
 20
33.369097
 30
0.0
 10
130.152664
 20
34.448771
 30
0.0
 10
130.481799
 20
35.524849
 30
0.0
 10
130.810923
 20
36.595434
 30
0.0
 10
131.140042
 20
37.658634
 30
0.0
 10
131.469171
 20
38.712553
 30
0.0
 10
131.798289
 20
39.755328
 30
0.0
 10
132.127401
 20
40.785116
 30
0.0
 10
132.456501
 20
41.800094
 30
0.0
 10
132.785603
 20
42.798466
 30
0.0
 10
133.114686
 20
43.778468
 30
0.0
 10
133.443776
 20
44.738355
 30
0.0
 10
133.772854
 20
45.676438
 30
0.0
 10
134.101905
 20
46.591056
 30
0.0
 10
134.430955
 20
47.480583
 30
0.0
 10
134.759995
 20
48.343448
 30
0.0
 10
135.089004
 20
49.178133
 30
0.0
 10
135.418012
 20
49.983149
 30
0.0
 10
135.747014
 20
50.757078
 30
0.0
 10
136.075978
 20
51.498572
 30
0.0
 10
136.404918
 20
52.206315
 30
0.0
 10
136.733874
 20
52.879049
 30
0.0
 10
137.062785
 20
53.515615
 30
0.0
 10
137.391677
 20
54.114892
 30
0.0
 10
137.720599
 20
54.675808
 30
0.0
 10
138.049453
 20
55.197455
 30
0.0
 10
138.378374
 20
55.678856
 30
0.0
 10
138.707347
 20
56.119208
 30
0.0
 10
139.036343
 20
56.517803
 30
0.0
 10
139.365485
 20
56.873913
 30
0.0
 10
139.694853
 20
57.186898
 30
0.0
 10
140.024463
 20
57.456319
 30
0.0
 10
140.354524
 20
57.681564
 30
0.0
 10
140.685171
 20
57.862062
 30
0.0
 10
141.016402
 20
57.997506
 30
0.0
 10
141.348335
 20
58.087078
 30
0.0
 10
141.680737
 20
58.130511
 30
0.0
 10
142.013247
 20
58.127568
 30
0.0
 10
142.345693
 20
58.078914
 30
0.0
 10
142.677487
 20
57.983166
 30
0.0
 10
143.008574
 20
57.841883
 30
0.0
 10
143.339230
 20
57.655872
 30
0.0
 10
143.669164
 20
57.424991
 30
0.0
 10
143.998769
 20
57.150142
 30
0.0
 10
144.328128
 20
56.831735
 30
0.0
 10
144.657204
 20
56.470229
 30
0.0
 10
144.986241
 20
56.066395
 30
0.0
 10
145.315185
 20
55.620847
 30
0.0
 10
145.644065
 20
55.134347
 30
0.0
 10
145.972964
 20
54.607764
 30
0.0
 10
146.301881
 20
54.041996
 30
0.0
 10
146.630756
 20
53.437993
 30
0.0
 10
146.959698
 20
52.796860
 30
0.0
 10
147.288632
 20
52.119679
 30
0.0
 10
147.617573
 20
51.407647
 30
0.0
 10
147.946554
 20
50.662027
 30
0.0
 10
148.275555
 20
49.884131
 30
0.0
 10
148.604541
 20
49.075322
 30
0.0
 10
148.933589
 20
48.237053
 30
0.0
 10
149.262612
 20
47.370770
 30
0.0
 10
149.591652
 20
46.478013
 30
0.0
 10
149.920739
 20
45.560382
 30
0.0
 10
150.249803
 20
44.619479
 30
0.0
 10
150.578883
 20
43.656981
 30
0.0
 10
150.907975
 20
42.674592
 30
0.0
 10
151.237080
 20
41.674048
 30
0.0
 10
151.566176
 20
40.657108
 30
0.0
 10
151.895300
 20
39.625592
 30
0.0
 10
152.224411
 20
38.581316
 30
0.0
 10
152.553528
 20
37.526136
 30
0.0
 10
152.882646
 20
36.461912
 30
0.0
 10
153.211778
 20
35.390538
 30
0.0
 10
153.540907
 20
34.313907
 30
0.0
 10
153.870055
 20
33.233930
 30
0.0
 10
154.199179
 20
32.152511
 30
0.0
 10
154.528311
 20
31.071566
 30
0.0
 10
154.857437
 20
29.993016
 30
0.0
 10
155.186560
 20
28.918772
 30
0.0
 10
155.515693
 20
27.850745
 30
0.0
 10
155.844813
 20
26.790811
 30
0.0
 10
156.173927
 20
25.740853
 30
0.0
 10
156.503047
 20
24.702727
 30
0.0
 10
156.832161
 20
23.678275
 30
0.0
 10
157.161260
 20
22.669307
 30
0.0
 10
157.490366
 20
21.677617
 30
0.0
 10
157.819437
 20
20.704950
 30
0.0
 10
158.148518
 20
19.753042
 30
0.0
 10
158.477596
 20
18.823573
 30
0.0
 10
158.806631
 20
17.918174
 30
0.0
 10
159.135693
 20
17.038476
 30
0.0
 10
159.464729
 20
16.186011
 30
0.0
 10
159.793748
 20
15.362286
 30
0.0
 10
160.122725
 20
14.568749
 30
0.0
 10
160.451728
 20
13.806828
 30
0.0
 10
160.780665
 20
13.077837
 30
0.0
 10
161.109623
 20
12.383088
 30
0.0
 10
161.438566
 20
11.723786
 30
0.0
 10
161.767460
 20
11.101070
 30
0.0
 10
162.096352
 20
10.516050
 30
0.0
 10
162.425268
 20
9.969766
 30
0.0
 10
162.754150
 20
9.463113
 30
0.0
 10
163.083068
 20
8.996998
 30
0.0
 10
163.412067
 20
8.572238
 30
0.0
 10
163.741094
 20
8.189486
 30
0.0
 10
164.070302
 20
7.849464
 30
0.0
 10
164.399767
 20
7.552771
 30
0.0
 10
164.729524
 20
7.299865
 30
0.0
 10
165.059803
 20
7.091362
 30
0.0
 10
165.390658
 20
6.927719
 30
0.0
 10
165.722139
 20
6.809323
 30
0.0
 10
166.054292
 20
6.737076
 30
0.0
 10
166.386782
 20
6.710875
 30
0.0
 10
166.719297
 20
6.731317
 30
0.0
 10
167.051493
 20
6.797849
 30
0.0
 10
167.383087
 20
6.910460
 30
0.0
 10
167.714010
 20
7.068528
 30
0.0
 10
168.044339
 20
7.271504
 30
0.0
 10
168.374168
 20
7.518887
 30
0.0
 10
168.703661
 20
7.810136
 30
0.0
 10
169.032899
 20
8.144768
 30
0.0
 10
169.361940
 20
8.522214
 30
0.0
 10
169.690943
 20
8.941752
 30
0.0
 10
170.019868
 20
9.402736
 30
0.0
 10
170.348742
 20
9.904369
 30
0.0
 10
170.677658
 20
10.445746
 30
0.0
 10
171.006549
 20
11.025977
 30
0.0
 10
171.335439
 20
11.644041
 30
0.0
 10
171.664396
 20
12.298823
 30
0.0
 10
171.993337
 20
12.989218
 30
0.0
 10
172.322282
 20
13.713999
 30
0.0
 10
172.651288
 20
14.471869
 30
0.0
 10
172.980268
 20
15.261527
 30
0.0
 10
173.309271
 20
16.081562
 30
0.0
 10
173.638300
 20
16.930517
 30
0.0
 10
173.967356
 20
17.806896
 30
0.0
 10
174.296401
 20
18.709172
 30
0.0
 10
174.625483
 20
19.635722
 30
0.0
 10
174.954552
 20
20.584924
 30
0.0
 10
175.283632
 20
21.555087
 30
0.0
 10
175.612735
 20
22.544492
 30
0.0
 10
175.941835
 20
23.551391
 30
0.0
 10
176.270934
 20
24.574000
 30
0.0
 10
176.600056
 20
25.610508
 30
0.0
 10
176.929179
 20
26.659087
 30
0.0
 10
177.258295
 20
27.717893
 30
0.0
 10
177.587437
 20
28.785023
 30
0.0
 10
177.916557
 20
29.858599
 30
0.0
 10
178.245685
 20
30.936708
 30
0.0
 10
178.574808
 20
32.017450
 30
0.0
 10
178.903945
 20
33.098906
 30
0.0
 10
179.233075
 20
34.179168
 30
0.0
 10
179.562211
 20
35.256322
 30
0.0
 10
179.891325
 20
36.328463
 30
0.0
 10
180.220458
 20
37.393687
 30
0.0
 10
180.549556
 20
38.450107
 30
0.0
 10
180.878698
 20
39.495835
 30
0.0
 10
181.207816
 20
40.529044
 30
0.0
 10
181.536915
 20
41.547904
 30
0.0
 10
181.866018
 20
42.550597
 30
0.0
 10
182.195113
 20
43.535349
 30
0.0
 10
182.524193
 20
44.500432
 30
0.0
 10
182.853264
 20
45.444127
 30
0.0
 10
183.182346
 20
46.364758
 30
0.0
 10
183.511370
 20
47.260715
 30
0.0
 10
183.840420
 20
48.130383
 30
0.0
 10
184.169458
 20
48.972246
 30
0.0
 10
184.498449
 20
49.784823
 30
0.0
 10
184.827445
 20
50.566662
 30
0.0
 10
185.156436
 20
51.316382
 30
0.0
 10
185.485367
 20
52.032689
 30
0.0
 10
185.814314
 20
52.714285
 30
0.0
 10
186.143262
 20
53.359984
 30
0.0
 10
186.472155
 20
53.968687
 30
0.0
 10
186.801047
 20
54.539303
 30
0.0
 10
187.129958
 20
55.070829
 30
0.0
 10
187.458845
 20
55.562379
 30
0.0
 10
187.787765
 20
56.013089
 30
0.0
 10
188.116791
 20
56.422155
 30
0.0
 10
188.445874
 20
56.788960
 30
0.0
 10
188.775153
 20
57.112823
 30
0.0
 10
189.104738
 20
57.393136
 30
0.0
 10
189.434641
 20
57.629491
 30
0.0
 10
189.765146
 20
57.821186
 30
0.0
 10
190.096241
 20
57.967887
 30
0.0
 10
190.427988
 20
58.069080
 30
0.0
 10
190.760273
 20
58.124259
 30
0.0
 10
191.092892
 20
58.132812
 30
0.0
 10
191.425212
 20
58.094139
 30
0.0
 10
191.757279
 20
58.010577
 30
0.0
 10
192.088595
 20
57.880732
 30
0.0
 10
192.419303
 20
57.705829
 30
0.0
 10
192.749437
 20
57.486147
 30
0.0
 10
193.079092
 20
57.222224
 30
0.0
 10
193.408488
 20
56.914655
 30
0.0
 10
193.737653
 20
56.563900
 30
0.0
 10
194.066659
 20
56.170569
 30
0.0
 10
194.395638
 20
55.735400
 30
0.0
 10
194.724546
 20
55.259070
 30
0.0
 10
195.053420
 20
54.742411
 30
0.0
 10
195.382341
 20
54.186356
 30
0.0
 10
195.711251
 20
53.591827
 30
0.0
 10
196.040150
 20
52.959857
 30
0.0
 10
196.369082
 20
52.291573
 30
0.0
 10
196.698043
 20
51.588146
 30
0.0
 10
197.026989
 20
50.850796
 30
0.0
 10
197.355986
 20
50.080849
 30
0.0
 10
197.684997
 20
49.279645
 30
0.0
 10
198.014001
 20
48.448590
 30
0.0
 10
198.343033
 20
47.589166
 30
0.0
 10
198.672098
 20
46.702895
 30
0.0
 10
199.001143
 20
45.791321
 30
0.0
 10
199.330227
 20
44.856087
 30
0.0
 10
199.659314
 20
43.898836
 30
0.0
 10
199.988392
 20
42.921252
 30
0.0
 10
200.317488
 20
41.925077
 30
0.0
 10
200.646595
 20
40.912076
 30
0.0
 10
200.975706
 20
39.884039
 30
0.0
 10
201.304813
 20
38.842778
 30
0.0
 10
201.633950
 20
37.790151
 30
0.0
 10
201.963063
 20
36.728013
 30
0.0
 10
202.292198
 20
35.658252
 30
0.0
 10
202.621317
 20
34.582754
 30
0.0
 10
202.950447
 20
33.503425
 30
0.0
 10
203.169810
 20
32.782790
 30
0.0
 10
203.279580
 20
32.422180
 30
0.0
 11
6.628821
 21
32.423790
 31
0.0
 11
6.958219
 21
31.342008
 31
0.0
 11
7.287617
 21
30.262129
 31
0.0
 11
7.617015
 21
29.186080
 31
0.0
 11
7.946413
 21
28.115758
 31
0.0
 11
8.275811
 21
27.053085
 31
0.0
 11
8.605210
 21
25.999910
 31
0.0
 11
8.934608
 21
24.958144
 31
0.0
 11
9.264006
 21
23.929606
 31
0.0
 11
9.593405
 21
22.916100
 31
0.0
 11
9.922803
 21
21.919451
 31
0.0
 11
10.252202
 21
20.941432
 31
0.0
 11
10.581600
 21
19.983730
 31
0.0
 11
10.910998
 21
19.048084
 31
0.0
 11
11.240396
 21
18.136160
 31
0.0
 11
11.569795
 21
17.249540
 31
0.0
 11
11.899193
 21
16.389796
 31
0.0
 11
12.228591
 21
15.558484
 31
0.0
 11
12.557989
 21
14.757020
 31
0.0
 11
12.887387
 21
13.986891
 31
0.0
 11
13.216786
 21
13.249459
 31
0.0
 11
13.546185
 21
12.545950
 31
0.0
 11
13.875583
 21
11.877694
 31
0.0
 11
14.204981
 21
11.245859
 31
0.0
 11
14.534379
 21
10.651510
 31
0.0
 11
14.863777
 21
10.095776
 31
0.0
 11
15.193175
 21
9.579631
 31
0.0
 11
15.522574
 21
9.103910
 31
0.0
 11
15.851971
 21
8.669529
 31
0.0
 11
16.181370
 21
8.277271
 31
0.0
 11
16.510769
 21
7.927750
 31
0.0
 11
16.840167
 21
7.621668
 31
0.0
 11
17.169565
 21
7.359559
 31
0.0
 11
17.498963
 21
7.141810
 31
0.0
 11
17.828361
 21
6.968937
 31
0.0
 11
18.157760
 21
6.841117
 31
0.0
 11
18.487158
 21
6.758590
 31
0.0
 11
18.816556
 21
6.721486
 31
0.0
 11
19.145954
 21
6.729827
 31
0.0
 11
19.475352
 21
6.783390
 31
0.0
 11
19.804751
 21
6.882894
 31
0.0
 11
20.134149
 21
7.027716
 31
0.0
 11
20.463548
 21
7.217420
 31
0.0
 11
20.792946
 21
7.451843
 31
0.0
 11
21.122344
 21
7.730553
 31
0.0
 11
21.451742
 21
8.052950
 31
0.0
 11
21.781141
 21
8.418568
 31
0.0
 11
22.110539
 21
8.826752
 31
0.0
 11
22.439936
 21
9.276710
 31
0.0
 11
22.769335
 21
9.767679
 31
0.0
 11
23.098734
 21
10.298824
 31
0.0
 11
23.428131
 21
10.869120
 31
0.0
 11
23.757530
 21
11.477656
 31
0.0
 11
24.086928
 21
12.123321
 31
0.0
 11
24.416327
 21
12.804910
 31
0.0
 11
24.745725
 21
13.521286
 31
0.0
 11
25.075123
 21
14.271174
 31
0.0
 11
25.404522
 21
15.053190
 31
0.0
 11
25.733919
 21
15.865992
 31
0.0
 11
26.063318
 21
16.708165
 31
0.0
 11
26.392717
 21
17.578160
 31
0.0
 11
26.722115
 21
18.474453
 31
0.0
 11
27.051513
 21
19.395487
 31
0.0
 11
27.380911
 21
20.339580
 31
0.0
 11
27.710309
 21
21.305098
 31
0.0
 11
28.039707
 21
22.290339
 31
0.0
 11
28.369106
 21
23.293510
 31
0.0
 11
28.698504
 21
24.312853
 31
0.0
 11
29.027902
 21
25.346583
 31
0.0
 11
29.357300
 21
26.392840
 31
0.0
 11
29.686698
 21
27.449779
 31
0.0
 11
30.016097
 21
28.515544
 31
0.0
 11
30.345495
 21
29.588230
 31
0.0
 11
30.674893
 21
30.665938
 31
0.0
 11
31.004292
 21
31.746766
 31
0.0
 11
31.333690
 21
32.828800
 31
0.0
 11
31.663088
 21
33.910094
 31
0.0
 11
31.992486
 21
34.988753
 31
0.0
 11
32.321884
 21
36.062880
 31
0.0
 11
32.651283
 21
37.130551
 31
0.0
 11
32.980682
 21
38.189872
 31
0.0
 11
33.310080
 21
39.238990
 31
0.0
 11
33.639478
 21
40.276018
 31
0.0
 11
33.968876
 21
41.299119
 31
0.0
 11
34.298274
 21
42.306520
 31
0.0
 11
34.627673
 21
43.296395
 31
0.0
 11
34.957071
 21
44.266995
 31
0.0
 11
35.286468
 21
45.216630
 31
0.0
 11
35.615867
 21
46.143567
 31
0.0
 11
35.945265
 21
47.046180
 31
0.0
 11
36.274663
 21
47.922910
 31
0.0
 11
36.604062
 21
48.772177
 31
0.0
 11
36.933460
 21
49.592446
 31
0.0
 11
37.262859
 21
50.382320
 31
0.0
 11
37.592257
 21
51.140364
 31
0.0
 11
37.921655
 21
51.865209
 31
0.0
 11
38.251054
 21
52.555640
 31
0.0
 11
38.580451
 21
53.210387
 31
0.0
 11
38.909850
 21
53.828270
 31
0.0
 11
39.239249
 21
54.408270
 31
0.0
 11
39.568647
 21
54.949291
 31
0.0
 11
39.898045
 21
55.450372
 31
0.0
 11
40.227443
 21
55.910700
 31
0.0
 11
40.556841
 21
56.329372
 31
0.0
 11
40.886240
 21
56.705651
 31
0.0
 11
41.215638
 21
57.038970
 31
0.0
 11
41.545036
 21
57.328642
 31
0.0
 11
41.874434
 21
57.574145
 31
0.0
 11
42.203832
 21
57.775130
 31
0.0
 11
42.533231
 21
57.931111
 31
0.0
 11
42.862629
 21
58.041896
 31
0.0
 11
43.192028
 21
58.107430
 31
0.0
 11
43.521426
 21
58.127123
 31
0.0
 11
43.850824
 21
58.101171
 31
0.0
 11
44.180222
 21
58.030730
 31
0.0
 11
44.509620
 21
57.914270
 31
0.0
 11
44.839018
 21
57.752557
 31
0.0
 11
45.168416
 21
57.545990
 31
0.0
 11
45.497815
 21
57.294907
 31
0.0
 11
45.827213
 21
56.999746
 31
0.0
 11
46.156611
 21
56.661090
 31
0.0
 11
46.486010
 21
56.279446
 31
0.0
 11
46.815408
 21
55.855494
 31
0.0
 11
47.144806
 21
55.390070
 31
0.0
 11
47.474205
 21
54.883926
 31
0.0
 11
47.803603
 21
54.337964
 31
0.0
 11
48.133000
 21
53.753220
 31
0.0
 11
48.462399
 21
53.130647
 31
0.0
 11
48.791798
 21
52.471356
 31
0.0
 11
49.121197
 21
51.776590
 31
0.0
 11
49.450595
 21
51.047503
 31
0.0
 11
49.779993
 21
50.285390
 31
0.0
 11
50.109391
 21
49.491670
 31
0.0
 11
50.438789
 21
48.667681
 31
0.0
 11
50.768187
 21
47.814882
 31
0.0
 11
51.097586
 21
46.934840
 31
0.0
 11
51.426983
 21
46.029075
 31
0.0
 11
51.756381
 21
45.099185
 31
0.0
 11
52.085780
 21
44.146860
 31
0.0
 11
52.415178
 21
43.173764
 31
0.0
 11
52.744576
 21
42.181606
 31
0.0
 11
53.073975
 21
41.172170
 31
0.0
 11
53.403373
 21
40.147207
 31
0.0
 11
53.732772
 21
39.108557
 31
0.0
 11
54.062170
 21
38.058080
 31
0.0
 11
54.391568
 21
36.997605
 31
0.0
 11
54.720966
 21
35.929021
 31
0.0
 11
55.050364
 21
34.854220
 31
0.0
 11
55.379763
 21
33.775125
 31
0.0
 11
55.709161
 21
32.693628
 31
0.0
 11
56.038560
 21
31.611660
 31
0.0
 11
56.367958
 21
30.531117
 31
0.0
 11
56.697356
 21
29.453936
 31
0.0
 11
57.026754
 21
28.382020
 31
0.0
 11
57.356153
 21
27.317251
 31
0.0
 11
57.685551
 21
26.261536
 31
0.0
 11
58.014948
 21
25.216720
 31
0.0
 11
58.344347
 21
24.184698
 31
0.0
 11
58.673745
 21
23.167289
 31
0.0
 11
59.003143
 21
22.166260
 31
0.0
 11
59.332542
 21
21.183407
 31
0.0
 11
59.661940
 21
20.220476
 31
0.0
 11
59.991338
 21
19.279130
 31
0.0
 11
60.320737
 21
18.361113
 31
0.0
 11
60.650135
 21
17.468030
 31
0.0
 11
60.979533
 21
16.601420
 31
0.0
 11
61.308931
 21
15.762850
 31
0.0
 11
61.638330
 21
14.953827
 31
0.0
 11
61.967729
 21
14.175710
 31
0.0
 11
62.297127
 21
13.429959
 31
0.0
 11
62.626524
 21
12.717884
 31
0.0
 11
62.955923
 21
12.040680
 31
0.0
 11
63.285321
 21
11.399633
 31
0.0
 11
63.614719
 21
10.795847
 31
0.0
 11
63.944118
 21
10.230340
 31
0.0
 11
64.273515
 21
9.704187
 31
0.0
 11
64.602913
 21
9.218310
 31
0.0
 11
64.932312
 21
8.773490
 31
0.0
 11
65.261710
 21
8.370629
 31
0.0
 11
65.591109
 21
8.010405
 31
0.0
 11
65.920507
 21
7.693390
 31
0.0
 11
66.249905
 21
7.420182
 31
0.0
 11
66.579304
 21
7.191358
 31
0.0
 11
66.908702
 21
7.007190
 31
0.0
 11
67.238100
 21
6.868070
 31
0.0
 11
67.567498
 21
6.774290
 31
0.0
 11
67.896896
 21
6.725850
 31
0.0
 11
68.226294
 21
6.723700
 31
0.0
 11
68.555693
 21
6.766514
 31
0.0
 11
68.885091
 21
6.853790
 31
0.0
 11
69.214489
 21
6.987267
 31
0.0
 11
69.543888
 21
7.165790
 31
0.0
 11
69.873286
 21
7.389080
 31
0.0
 11
70.202685
 21
7.656796
 31
0.0
 11
70.532083
 21
7.968341
 31
0.0
 11
70.861480
 21
8.323170
 31
0.0
 11
71.190879
 21
8.720737
 31
0.0
 11
71.520277
 21
9.160346
 31
0.0
 11
71.849675
 21
9.641140
 31
0.0
 11
72.179074
 21
10.162300
 31
0.0
 11
72.508472
 21
10.722943
 31
0.0
 11
72.837870
 21
11.321990
 31
0.0
 11
73.167269
 21
11.958467
 31
0.0
 11
73.496667
 21
12.631220
 31
0.0
 11
73.826066
 21
13.338990
 31
0.0
 11
74.155463
 21
14.080604
 31
0.0
 11
74.484861
 21
14.854749
 31
0.0
 11
74.814260
 21
15.659990
 31
0.0
 11
75.143658
 21
16.494937
 31
0.0
 11
75.473056
 21
17.358129
 31
0.0
 11
75.802455
 21
18.247990
 31
0.0
 11
76.131853
 21
19.162990
 31
0.0
 11
76.461251
 21
20.101497
 31
0.0
 11
76.790650
 21
21.061810
 31
0.0
 11
77.120048
 21
22.042261
 31
0.0
 11
77.449446
 21
23.041126
 31
0.0
 11
77.778844
 21
24.056590
 31
0.0
 11
78.108243
 21
25.086887
 31
0.0
 11
78.437641
 21
26.130203
 31
0.0
 11
78.767040
 21
27.184660
 31
0.0
 11
79.096438
 21
28.248391
 31
0.0
 11
79.425836
 21
29.319529
 31
0.0
 11
79.755234
 21
30.396160
 31
0.0
 11
80.084632
 21
31.476382
 31
0.0
 11
80.414030
 21
32.558281
 31
0.0
 11
80.743428
 21
33.639930
 31
0.0
 11
81.072826
 21
34.719437
 31
0.0
 11
81.402225
 21
35.794876
 31
0.0
 11
81.731623
 21
36.864350
 31
0.0
 11
82.061022
 21
37.925939
 31
0.0
 11
82.390420
 21
38.977768
 31
0.0
 11
82.719818
 21
40.018010
 31
0.0
 11
83.049217
 21
41.044764
 31
0.0
 11
83.378615
 21
42.056236
 31
0.0
 11
83.708012
 21
43.050670
 31
0.0
 11
84.037411
 21
44.026250
 31
0.0
 11
84.366809
 21
44.981263
 31
0.0
 11
84.696207
 21
45.914050
 31
0.0
 11
85.025606
 21
46.822907
 31
0.0
 11
85.355003
 21
47.706243
 31
0.0
 11
85.684401
 21
48.562540
 31
0.0
 11
86.013800
 21
49.390198
 31
0.0
 11
86.343199
 21
50.187779
 31
0.0
 11
86.672598
 21
50.953910
 31
0.0
 11
87.001995
 21
51.687199
 31
0.0
 11
87.331393
 21
52.386325
 31
0.0
 11
87.660792
 21
53.050120
 31
0.0
 11
87.990190
 21
53.677341
 31
0.0
 11
88.319588
 21
54.266866
 31
0.0
 11
88.648987
 21
54.817740
 31
0.0
 11
88.978385
 21
55.328920
 31
0.0
 11
89.307783
 21
55.799470
 31
0.0
 11
89.637182
 21
56.228650
 31
0.0
 11
89.966580
 21
56.615623
 31
0.0
 11
90.295978
 21
56.959694
 31
0.0
 11
90.625376
 21
57.260340
 31
0.0
 11
90.954774
 21
57.516986
 31
0.0
 11
91.284173
 21
57.729077
 31
0.0
 11
91.613571
 21
57.896390
 31
0.0
 11
91.942969
 21
58.018499
 31
0.0
 11
92.272368
 21
58.095271
 31
0.0
 11
92.601766
 21
58.126500
 31
0.0
 11
92.931164
 21
58.112464
 31
0.0
 11
93.260562
 21
58.052610
 31
0.0
 11
93.589960
 21
57.947320
 31
0.0
 11
93.919358
 21
57.796842
 31
0.0
 11
94.248757
 21
57.601478
 31
0.0
 11
94.578155
 21
57.361540
 31
0.0
 11
94.907554
 21
57.077375
 31
0.0
 11
95.236952
 21
56.749485
 31
0.0
 11
95.566350
 21
56.378540
 31
0.0
 11
95.895749
 21
55.965136
 31
0.0
 11
96.225147
 21
55.509978
 31
0.0
 11
96.554545
 21
55.013960
 31
0.0
 11
96.883943
 21
54.477879
 31
0.0
 11
97.213341
 21
53.902684
 31
0.0
 11
97.542739
 21
53.289470
 31
0.0
 11
97.872137
 21
52.639284
 31
0.0
 11
98.201535
 21
51.953246
 31
0.0
 11
98.530933
 21
51.232640
 31
0.0
 11
98.860332
 21
50.478671
 31
0.0
 11
99.189730
 21
49.692689
 31
0.0
 11
99.519129
 21
48.876140
 31
0.0
 11
99.848528
 21
48.030428
 31
0.0
 11
100.177923
 21
47.157042
 31
0.0
 11
100.507320
 21
46.257590
 31
0.0
 11
100.836724
 21
45.333581
 31
0.0
 11
101.166122
 21
44.386683
 31
0.0
 11
101.495520
 21
43.418620
 31
0.0
 11
101.824917
 21
42.431064
 31
0.0
 11
102.154313
 21
41.425756
 31
0.0
 11
102.483710
 21
40.404520
 31
0.0
 11
102.813110
 21
39.369129
 31
0.0
 11
103.142510
 21
38.321421
 31
0.0
 11
103.471910
 21
37.263290
 31
0.0
 11
103.801306
 21
36.196553
 31
0.0
 11
104.130708
 21
35.123123
 31
0.0
 11
104.460110
 21
34.044920
 31
0.0
 11
104.789503
 21
32.963849
 31
0.0
 11
105.118900
 21
31.881811
 31
0.0
 11
105.448300
 21
30.800720
 31
0.0
 11
105.777696
 21
29.722527
 31
0.0
 11
106.107098
 21
28.649120
 31
0.0
 11
106.436500
 21
27.582380
 31
0.0
 11
106.765893
 21
26.524224
 31
0.0
 11
107.095290
 21
25.476530
 31
0.0
 11
107.424690
 21
24.441120
 31
0.0
 11
107.754090
 21
23.419891
 31
0.0
 11
108.083487
 21
22.414609
 31
0.0
 11
108.412880
 21
21.427020
 31
0.0
 11
108.742280
 21
20.458947
 31
0.0
 11
109.071677
 21
19.512093
 31
0.0
 11
109.401070
 21
18.588080
 31
0.0
 11
109.730477
 21
17.688598
 31
0.0
 11
110.059877
 21
16.815242
 31
0.0
 11
110.389270
 21
15.969500
 31
0.0
 11
110.718670
 21
15.152939
 31
0.0
 11
111.048070
 21
14.367011
 31
0.0
 11
111.377470
 21
13.613030
 31
0.0
 11
111.706870
 21
12.892399
 31
0.0
 11
112.036267
 21
12.206391
 31
0.0
 11
112.365660
 21
11.556160
 31
0.0
 11
112.695058
 21
10.942945
 31
0.0
 11
113.024456
 21
10.367819
 31
0.0
 11
113.353860
 21
9.831710
 31
0.0
 11
113.683257
 21
9.335660
 31
0.0
 11
114.012653
 21
8.880550
 31
0.0
 11
114.342050
 21
8.467100
 31
0.0
 11
114.671450
 21
8.096126
 31
0.0
 11
115.000850
 21
7.768291
 31
0.0
 11
115.330250
 21
7.484090
 31
0.0
 11
115.659647
 21
7.244167
 31
0.0
 11
115.989043
 21
7.048800
 31
0.0
 11
116.318440
 21
6.898350
 31
0.0
 11
116.647840
 21
6.793171
 31
0.0
 11
116.977240
 21
6.733469
 31
0.0
 11
117.306640
 21
6.719170
 31
0.0
 11
117.636037
 21
6.750749
 31
0.0
 11
117.965433
 21
6.827531
 31
0.0
 11
118.294830
 21
6.949590
 31
0.0
 11
118.624226
 21
7.116883
 31
0.0
 11
118.953628
 21
7.329054
 31
0.0
 11
119.283030
 21
7.585640
 31
0.0
 11
119.612427
 21
7.886215
 31
0.0
 11
119.941823
 21
8.230361
 31
0.0
 11
120.271220
 21
8.617330
 31
0.0
 11
120.600620
 21
9.046471
 31
0.0
 11
120.930020
 21
9.517075
 31
0.0
 11
121.259420
 21
10.028210
 31
0.0
 11
121.588813
 21
10.579056
 31
0.0
 11
121.918210
 21
11.168647
 31
0.0
 11
122.247610
 21
11.795860
 31
0.0
 11
122.577010
 21
12.459621
 31
0.0
 11
122.906410
 21
13.158786
 31
0.0
 11
123.235810
 21
13.892040
 31
0.0
 11
123.565203
 21
14.658168
 31
0.0
 11
123.894603
 21
15.455792
 31
0.0
 11
124.224010
 21
16.283440
 31
0.0
 11
124.553403
 21
17.139696
 31
0.0
 11
124.882797
 21
18.023064
 31
0.0
 11
125.212190
 21
18.931900
 31
0.0
 11
125.541590
 21
19.864670
 31
0.0
 11
125.870990
 21
20.819720
 31
0.0
 11
126.200390
 21
21.795310
 31
0.0
 11
126.529790
 21
22.789720
 31
0.0
 11
126.859187
 21
23.801214
 31
0.0
 11
127.188580
 21
24.827970
 31
0.0
 11
127.517982
 21
25.868192
 31
0.0
 11
127.847384
 21
26.920041
 31
0.0
 11
128.176780
 21
27.981630
 31
0.0
 11
128.506180
 21
29.051080
 31
0.0
 11
128.835577
 21
30.126520
 31
0.0
 11
129.164970
 21
31.206010
 31
0.0
 11
129.494372
 21
32.287680
 31
0.0
 11
129.823774
 21
33.369583
 31
0.0
 11
130.153170
 21
34.449820
 31
0.0
 11
130.482567
 21
35.526444
 31
0.0
 11
130.811963
 21
36.597576
 31
0.0
 11
131.141360
 21
37.661320
 31
0.0
 11
131.470764
 21
38.715776
 31
0.0
 11
131.800162
 21
39.759064
 31
0.0
 11
132.129560
 21
40.789360
 31
0.0
 11
132.458957
 21
41.804838
 31
0.0
 11
132.788353
 21
42.803676
 31
0.0
 11
133.117750
 21
43.784140
 31
0.0
 11
133.447154
 21
44.744467
 31
0.0
 11
133.776552
 21
45.682947
 31
0.0
 11
134.105950
 21
46.597960
 31
0.0
 11
134.435347
 21
47.487835
 31
0.0
 11
134.764743
 21
48.351005
 31
0.0
 11
135.094140
 21
49.185980
 31
0.0
 11
135.423540
 21
49.991227
 31
0.0
 11
135.752940
 21
50.765327
 31
0.0
 11
136.082340
 21
51.506960
 31
0.0
 11
136.411733
 21
52.214764
 31
0.0
 11
136.741133
 21
52.887470
 31
0.0
 11
137.070540
 21
53.523960
 31
0.0
 11
137.399933
 21
54.123033
 31
0.0
 11
137.729327
 21
54.683627
 31
0.0
 11
138.058720
 21
55.204840
 31
0.0
 11
138.388123
 21
55.685638
 31
0.0
 11
138.717521
 21
56.125192
 31
0.0
 11
139.046930
 21
56.522810
 31
0.0
 11
139.376323
 21
56.877676
 31
0.0
 11
139.705717
 21
57.189184
 31
0.0
 11
140.035110
 21
57.456870
 31
0.0
 11
140.364512
 21
57.680177
 31
0.0
 11
140.693914
 21
57.858690
 31
0.0
 11
141.023310
 21
57.992190
 31
0.0
 11
141.352714
 21
58.080289
 31
0.0
 11
141.682112
 21
58.122911
 31
0.0
 11
142.011510
 21
58.120130
 31
0.0
 11
142.340905
 21
58.072121
 31
0.0
 11
142.670305
 21
57.978126
 31
0.0
 11
142.999700
 21
57.838790
 31
0.0
 11
143.329097
 21
57.654707
 31
0.0
 11
143.658493
 21
57.425789
 31
0.0
 11
143.987890
 21
57.152620
 31
0.0
 11
144.317288
 21
56.835673
 31
0.0
 11
144.646695
 21
56.475364
 31
0.0
 11
144.976100
 21
56.072490
 31
0.0
 11
145.305493
 21
55.627717
 31
0.0
 11
145.634887
 21
55.141786
 31
0.0
 11
145.964280
 21
54.615640
 31
0.0
 11
146.293684
 21
54.050170
 31
0.0
 11
146.623082
 21
53.446336
 31
0.0
 11
146.952480
 21
52.805300
 31
0.0
 11
147.281875
 21
52.128129
 31
0.0
 11
147.611275
 21
51.416007
 31
0.0
 11
147.940670
 21
50.670270
 31
0.0
 11
148.270074
 21
49.892181
 31
0.0
 11
148.599472
 21
49.083119
 31
0.0
 11
148.928870
 21
48.244590
 31
0.0
 11
149.258263
 21
47.377983
 31
0.0
 11
149.587663
 21
46.484857
 31
0.0
 11
149.917070
 21
45.566850
 31
0.0
 11
150.246465
 21
44.625538
 31
0.0
 11
150.575865
 21
43.662589
 31
0.0
 11
150.905260
 21
42.679750
 31
0.0
 11
151.234658
 21
41.678733
 31
0.0
 11
151.564056
 21
40.661290
 31
0.0
 11
151.893460
 21
39.629260
 31
0.0
 11
152.222853
 21
38.584472
 31
0.0
 11
152.552247
 21
37.528751
 31
0.0
 11
152.881640
 21
36.463990
 31
0.0
 11
153.211040
 21
35.392067
 31
0.0
 11
153.540443
 21
34.314880
 31
0.0
 11
153.869850
 21
33.234350
 31
0.0
 11
154.199247
 21
32.152370
 31
0.0
 11
154.528643
 21
31.070874
 31
0.0
 11
154.858040
 21
29.991760
 31
0.0
 11
155.187435
 21
28.916966
 31
0.0
 11
155.516835
 21
27.848397
 31
0.0
 11
155.846230
 21
26.787930
 31
0.0
 11
156.175628
 21
25.737433
 31
0.0
 11
156.505026
 21
24.698803
 31
0.0
 11
156.834430
 21
23.673840
 31
0.0
 11
157.163830
 21
22.664383
 31
0.0
 11
157.493227
 21
21.672234
 31
0.0
 11
157.822620
 21
20.699110
 31
0.0
 11
158.152020
 21
19.746774
 31
0.0
 11
158.481417
 21
18.816916
 31
0.0
 11
158.810810
 21
17.911140
 31
0.0
 11
159.140219
 21
17.031095
 31
0.0
 11
159.469617
 21
16.178348
 31
0.0
 11
159.799020
 21
15.354350
 31
0.0
 11
160.128413
 21
14.560592
 31
0.0
 11
160.457807
 21
13.798525
 31
0.0
 11
160.787200
 21
13.069420
 31
0.0
 11
161.116604
 21
12.374634
 31
0.0
 11
161.446002
 21
11.715390
 31
0.0
 11
161.775400
 21
11.092790
 31
0.0
 11
162.104795
 21
10.508010
 31
0.0
 11
162.434195
 21
9.962093
 31
0.0
 11
162.763590
 21
9.455940
 31
0.0
 11
163.092997
 21
8.990487
 31
0.0
 11
163.422397
 21
8.566593
 31
0.0
 11
163.751790
 21
8.184920
 31
0.0
 11
164.081188
 21
7.846226
 31
0.0
 11
164.410586
 21
7.551107
 31
0.0
 11
164.739990
 21
7.300020
 31
0.0
 11
165.069385
 21
7.093498
 31
0.0
 11
165.398785
 21
6.931829
 31
0.0
 11
165.728180
 21
6.815280
 31
0.0
 11
166.057580
 21
6.744228
 31
0.0
 11
166.386980
 21
6.718599
 31
0.0
 11
166.716380
 21
6.738580
 31
0.0
 11
167.045773
 21
6.803980
 31
0.0
 11
167.375170
 21
6.914830
 31
0.0
 11
167.704570
 21
7.070910
 31
0.0
 11
168.033968
 21
7.271896
 31
0.0
 11
168.363372
 21
7.517441
 31
0.0
 11
168.692770
 21
7.807080
 31
0.0
 11
169.022167
 21
8.140354
 31
0.0
 11
169.351563
 21
8.516693
 31
0.0
 11
169.680960
 21
8.935340
 31
0.0
 11
170.010360
 21
9.395631
 31
0.0
 11
170.339757
 21
9.896756
 31
0.0
 11
170.669150
 21
10.437740
 31
0.0
 11
170.998548
 21
11.017723
 31
0.0
 11
171.327946
 21
11.635654
 31
0.0
 11
171.657350
 21
12.290370
 31
0.0
 11
171.986750
 21
12.980790
 31
0.0
 11
172.316150
 21
13.705683
 31
0.0
 11
172.645550
 21
14.463690
 31
0.0
 11
172.974943
 21
15.253559
 31
0.0
 11
173.304337
 21
16.073864
 31
0.0
 11
173.633730
 21
16.923100
 31
0.0
 11
173.963135
 21
17.799814
 31
0.0
 11
174.292535
 21
18.702463
 31
0.0
 11
174.621940
 21
19.629410
 31
0.0
 11
174.951333
 21
20.579027
 31
0.0
 11
175.280730
 21
21.549646
 31
0.0
 11
175.610130
 21
22.539510
 31
0.0
 11
175.939527
 21
23.546897
 31
0.0
 11
176.268923
 21
24.570013
 31
0.0
 11
176.598320
 21
25.607020
 31
0.0
 11
176.927723
 21
26.656133
 31
0.0
 11
177.257121
 21
27.715474
 31
0.0
 11
177.586530
 21
28.783160
 31
0.0
 11
177.915923
 21
29.857276
 31
0.0
 11
178.245317
 21
30.935944
 31
0.0
 11
178.574710
 21
32.017240
 31
0.0
 11
178.904110
 21
33.099253
 31
0.0
 11
179.233510
 21
34.180073
 31
0.0
 11
179.562910
 21
35.257780
 31
0.0
 11
179.892303
 21
36.330473
 31
0.0
 11
180.221697
 21
37.396233
 31
0.0
 11
180.551090
 21
38.453200
 31
0.0
 11
180.880497
 21
39.499441
 31
0.0
 11
181.209900
 21
40.533156
 31
0.0
 11
181.539300
 21
41.552530
 31
0.0
 11
181.868697
 21
42.555698
 31
0.0
 11
182.198093
 21
43.540902
 31
0.0
 11
182.527490
 21
44.506430
 31
0.0
 11
182.856892
 21
45.450550
 31
0.0
 11
183.186291
 21
46.371560
 31
0.0
 11
183.515680
 21
47.267880
 31
0.0
 11
183.845084
 21
48.137880
 31
0.0
 11
184.174482
 21
48.980010
 31
0.0
 11
184.503880
 21
49.792850
 31
0.0
 11
184.833280
 21
50.574882
 31
0.0
 11
185.162677
 21
51.324731
 31
0.0
 11
185.492070
 21
52.041130
 31
0.0
 11
185.821473
 21
52.722731
 31
0.0
 11
186.150877
 21
53.368342
 31
0.0
 11
186.480280
 21
53.976890
 31
0.0
 11
186.809677
 21
54.547225
 31
0.0
 11
187.139073
 21
55.078329
 31
0.0
 11
187.468470
 21
55.569330
 31
0.0
 11
187.797863
 21
56.019298
 31
0.0
 11
188.127260
 21
56.427419
 31
0.0
 11
188.456660
 21
56.793060
 31
0.0
 11
188.786058
 21
57.115497
 31
0.0
 11
189.115456
 21
57.394150
 31
0.0
 11
189.444860
 21
57.628600
 31
0.0
 11
189.774249
 21
57.818299
 31
0.0
 11
190.103651
 21
57.963054
 31
0.0
 11
190.433060
 21
58.062620
 31
0.0
 11
190.762453
 21
58.116739
 31
0.0
 11
191.091847
 21
58.125035
 31
0.0
 11
191.421240
 21
58.087420
 31
0.0
 11
191.750640
 21
58.004986
 31
0.0
 11
192.080043
 21
57.877124
 31
0.0
 11
192.409450
 21
57.704190
 31
0.0
 11
192.738843
 21
57.486468
 31
0.0
 11
193.068237
 21
57.224306
 31
0.0
 11
193.397630
 21
56.918250
 31
0.0
 11
193.727030
 21
56.568760
 31
0.0
 11
194.056430
 21
56.176447
 31
0.0
 11
194.385830
 21
55.742090
 31
0.0
 11
194.715223
 21
55.266393
 31
0.0
 11
195.044623
 21
54.750184
 31
0.0
 11
195.374030
 21
54.194460
 31
0.0
 11
195.703430
 21
53.600151
 31
0.0
 11
196.032827
 21
52.968276
 31
0.0
 11
196.362220
 21
52.300020
 31
0.0
 11
196.691617
 21
51.596546
 31
0.0
 11
197.021013
 21
50.859064
 31
0.0
 11
197.350410
 21
50.088950
 31
0.0
 11
197.679810
 21
49.287527
 31
0.0
 11
198.009207
 21
48.456183
 31
0.0
 11
198.338600
 21
47.596460
 31
0.0
 11
198.668005
 21
46.709846
 31
0.0
 11
198.997405
 21
45.797881
 31
0.0
 11
199.326810
 21
44.862240
 31
0.0
 11
199.656207
 21
43.904571
 31
0.0
 11
199.985603
 21
42.926525
 31
0.0
 11
200.315000
 21
41.929870
 31
0.0
 11
200.644395
 21
40.916390
 31
0.0
 11
200.973795
 21
39.887840
 31
0.0
 11
201.303190
 21
38.846060
 31
0.0
 11
201.632594
 21
37.792906
 31
0.0
 11
201.961992
 21
36.730221
 31
0.0
 11
202.291390
 21
35.659920
 31
0.0
 11
202.620783
 21
34.583870
 31
0.0
 11
202.950180
 21
33.503983
 31
0.0
 11
203.279580
 21
32.422180
 31
0.0
  0
ENDSEC
  0
SECTION
  2
OBJECTS
  0
DICTIONARY
  5
C
330
0
100
AcDbDictionary
  3
ACAD_GROUP
350
D
  3
ACAD_MLINESTYLE
350
17
  0
DICTIONARY
  5
D
330
C
100
AcDbDictionary
  0
DICTIONARY
  5
1A
330
C
100
AcDbDictionary
  0
DICTIONARY
  5
17
330
C
100
AcDbDictionary
  3
STANDARD
350
18
  0
DICTIONARY
  5
19
330
C
100
AcDbDictionary
  0
ENDSEC
  0
EOF
